<svg id="svgQrWrapper" viewBox="0 0 300 300" xmlns="http://www.w3.org/2000/svg" xmlns:xlink="http://www.w3.org/1999/xlink" style="width: 100%; height: 100%;"><svg><g transform="translate(9, 9)scale(0.95)" fill="none"><svg width="300" height="300"><style>.background-color{ fill: #fff; }.corners-square-color-0-0{ fill: #475d81; }.corners-dot-color-0-0{ fill: #475d81; }.corners-square-color-1-0{ fill: #475d81; }.corners-dot-color-1-0{ fill: #475d81; }.corners-square-color-0-1{ fill: #475d81; }.corners-dot-color-0-1{ fill: #475d81; }</style><defs><clipPath id="clip-path-dot-color"><path d="M 5 85v 10h 10a 10 10, 0, 0, 0, -10 -10" transform="rotate(-90,10,90)"/><rect x="5" y="95" width="10" height="10" transform="rotate(0,10,100)"/><rect x="5" y="105" width="10" height="10" transform="rotate(0,10,110)"/><path d="M 5 125v 10h 10a 10 10, 0, 0, 0, -10 -10" transform="rotate(-90,10,130)"/><path d="M 5 135v 10h 10a 10 10, 0, 0, 0, -10 -10" transform="rotate(90,10,140)"/><path d="M 5 155v 10h 10a 10 10, 0, 0, 0, -10 -10" transform="rotate(-90,10,160)"/><rect x="5" y="165" width="10" height="10" transform="rotate(0,10,170)"/><rect x="5" y="175" width="10" height="10" transform="rotate(0,10,180)"/><rect x="5" y="185" width="10" height="10" transform="rotate(0,10,190)"/><rect x="15" y="95" width="10" height="10" transform="rotate(0,20,100)"/><rect x="15" y="105" width="10" height="10" transform="rotate(0,20,110)"/><rect x="15" y="125" width="10" height="10" transform="rotate(0,20,130)"/><rect x="15" y="165" width="10" height="10" transform="rotate(0,20,170)"/><rect x="15" y="175" width="10" height="10" transform="rotate(0,20,180)"/><rect x="15" y="185" width="10" height="10" transform="rotate(0,20,190)"/><rect x="15" y="195" width="10" height="10" transform="rotate(0,20,200)"/><path d="M 25 85v 10h 10a 10 10, 0, 0, 0, -10 -10" transform="rotate(-90,30,90)"/><rect x="25" y="105" width="10" height="10" transform="rotate(0,30,110)"/><rect x="25" y="115" width="10" height="10" transform="rotate(0,30,120)"/><path d="M 25 125v 10h 10a 10 10, 0, 0, 0, -10 -10" transform="rotate(90,30,130)"/><path d="M 25 155v 10h 10a 10 10, 0, 0, 0, -10 -10" transform="rotate(-90,30,160)"/><rect x="25" y="165" width="10" height="10" transform="rotate(0,30,170)"/><path d="M 25 175v 10h 10a 10 10, 0, 0, 0, -10 -10" transform="rotate(90,30,180)"/><rect x="25" y="195" width="10" height="10" transform="rotate(0,30,200)"/><path d="M 25 205v 10h 10a 10 10, 0, 0, 0, -10 -10" transform="rotate(90,30,210)"/><path d="M 35 85v 10h 10a 10 10, 0, 0, 0, -10 -10" transform="rotate(90,40,90)"/><rect x="35" y="105" width="10" height="10" transform="rotate(0,40,110)"/><path d="M 35 115v 10h 10a 10 10, 0, 0, 0, -10 -10" transform="rotate(90,40,120)"/><path d="M 35 135v 5a 5 5, 0, 0, 0, 5 5h 5v -5a 5 5, 0, 0, 0, -5 -5" transform="rotate(90,40,140)"/><rect x="35" y="165" width="10" height="10" transform="rotate(0,40,170)"/><path d="M 35 185v 5a 5 5, 0, 0, 0, 5 5h 5v -5a 5 5, 0, 0, 0, -5 -5" transform="rotate(90,40,190)"/><rect x="45" y="105" width="10" height="10" transform="rotate(0,50,110)"/><rect x="45" y="165" width="10" height="10" transform="rotate(0,50,170)"/><path d="M 45 205v 5a 5 5, 0, 0, 0, 5 5h 5v -5a 5 5, 0, 0, 0, -5 -5" transform="rotate(90,50,210)"/><path d="M 55 85v 10h 10a 10 10, 0, 0, 0, -10 -10" transform="rotate(-90,60,90)"/><rect x="55" y="105" width="10" height="10" transform="rotate(0,60,110)"/><path d="M 55 135v 5a 5 5, 0, 0, 0, 5 5h 5v -5a 5 5, 0, 0, 0, -5 -5" transform="rotate(90,60,140)"/><path d="M 55 155v 10h 10a 10 10, 0, 0, 0, -10 -10" transform="rotate(-90,60,160)"/><rect x="55" y="165" width="10" height="10" transform="rotate(0,60,170)"/><path d="M 55 195v 5a 5 5, 0, 0, 0, 5 5h 5v -5a 5 5, 0, 0, 0, -5 -5" transform="rotate(90,60,200)"/><rect x="65" y="85" width="10" height="10" transform="rotate(0,70,90)"/><path d="M 65 105v 10h 10a 10 10, 0, 0, 0, -10 -10" transform="rotate(90,70,110)"/><path d="M 65 125v 10h 10a 10 10, 0, 0, 0, -10 -10" transform="rotate(-90,70,130)"/><path d="M 65 145v 10h 10a 10 10, 0, 0, 0, -10 -10" transform="rotate(-90,70,150)"/><path d="M 65 165v 10h 10a 10 10, 0, 0, 0, -10 -10" transform="rotate(90,70,170)"/><path d="M 65 185v 10h 10a 10 10, 0, 0, 0, -10 -10" transform="rotate(-90,70,190)"/><path d="M 65 205v 10h 10a 10 10, 0, 0, 0, -10 -10" transform="rotate(-90,70,210)"/><rect x="75" y="85" width="10" height="10" transform="rotate(0,80,90)"/><rect x="75" y="95" width="10" height="10" transform="rotate(0,80,100)"/><rect x="75" y="125" width="10" height="10" transform="rotate(0,80,130)"/><path d="M 75 145v 10h 10a 10 10, 0, 0, 0, -10 -10" transform="rotate(90,80,150)"/><path d="M 75 175v 10h 10a 10 10, 0, 0, 0, -10 -10" transform="rotate(-90,80,180)"/><rect x="75" y="185" width="10" height="10" transform="rotate(0,80,190)"/><path d="M 75 205v 10h 10a 10 10, 0, 0, 0, -10 -10" transform="rotate(90,80,210)"/><path d="M 85 15v 10h 10a 10 10, 0, 0, 0, -10 -10" transform="rotate(-90,90,20)"/><path d="M 85 35v 5a 5 5, 0, 0, 0, 5 5h 5v -5a 5 5, 0, 0, 0, -5 -5" transform="rotate(90,90,40)"/><path d="M 85 55v 10h 10a 10 10, 0, 0, 0, -10 -10" transform="rotate(-90,90,60)"/><rect x="85" y="65" width="10" height="10" transform="rotate(0,90,70)"/><rect x="85" y="75" width="10" height="10" transform="rotate(0,90,80)"/><rect x="85" y="85" width="10" height="10" transform="rotate(0,90,90)"/><path d="M 85 95v 10h 10a 10 10, 0, 0, 0, -10 -10" transform="rotate(90,90,100)"/><path d="M 85 115v 10h 10a 10 10, 0, 0, 0, -10 -10" transform="rotate(-90,90,120)"/><path d="M 85 125v 10h 10a 10 10, 0, 0, 0, -10 -10" transform="rotate(90,90,130)"/><path d="M 85 165v 10h 10a 10 10, 0, 0, 0, -10 -10" transform="rotate(-90,90,170)"/><rect x="85" y="175" width="10" height="10" transform="rotate(0,90,180)"/><rect x="85" y="185" width="10" height="10" transform="rotate(0,90,190)"/><path d="M 85 215v 10h 10a 10 10, 0, 0, 0, -10 -10" transform="rotate(-90,90,220)"/><rect x="85" y="225" width="10" height="10" transform="rotate(0,90,230)"/><path d="M 85 235v 10h 10a 10 10, 0, 0, 0, -10 -10" transform="rotate(90,90,240)"/><path d="M 85 255v 10h 10a 10 10, 0, 0, 0, -10 -10" transform="rotate(-90,90,260)"/><rect x="85" y="265" width="10" height="10" transform="rotate(0,90,270)"/><path d="M 85 285v 10h 10a 10 10, 0, 0, 0, -10 -10" transform="rotate(-90,90,290)"/><path d="M 95 5v 10h 10a 10 10, 0, 0, 0, -10 -10" transform="rotate(-90,100,10)"/><rect x="95" y="15" width="10" height="10" transform="rotate(0,100,20)"/><path d="M 95 25v 10h 10a 10 10, 0, 0, 0, -10 -10" transform="rotate(90,100,30)"/><path d="M 95 45v 10h 10a 10 10, 0, 0, 0, -10 -10" transform="rotate(-90,100,50)"/><rect x="95" y="55" width="10" height="10" transform="rotate(0,100,60)"/><rect x="95" y="75" width="10" height="10" transform="rotate(0,100,80)"/><rect x="95" y="115" width="10" height="10" transform="rotate(0,100,120)"/><path d="M 95 135v 10h 10a 10 10, 0, 0, 0, -10 -10" transform="rotate(-90,100,140)"/><path d="M 95 145v 10h 10a 10 10, 0, 0, 0, -10 -10" transform="rotate(90,100,150)"/><rect x="95" y="165" width="10" height="10" transform="rotate(0,100,170)"/><rect x="95" y="175" width="10" height="10" transform="rotate(0,100,180)"/><rect x="95" y="185" width="10" height="10" transform="rotate(0,100,190)"/><rect x="95" y="195" width="10" height="10" transform="rotate(0,100,200)"/><rect x="95" y="215" width="10" height="10" transform="rotate(0,100,220)"/><rect x="95" y="225" width="10" height="10" transform="rotate(0,100,230)"/><path d="M 95 265v 10h 10a 10 10, 0, 0, 0, -10 -10" transform="rotate(90,100,270)"/><path d="M 95 285v 10h 10a 10 10, 0, 0, 0, -10 -10" transform="rotate(90,100,290)"/><path d="M 105 35v 10h 10a 10 10, 0, 0, 0, -10 -10" transform="rotate(-90,110,40)"/><rect x="105" y="55" width="10" height="10" transform="rotate(0,110,60)"/><rect x="105" y="65" width="10" height="10" transform="rotate(0,110,70)"/><rect x="105" y="75" width="10" height="10" transform="rotate(0,110,80)"/><path d="M 105 85v 10h 10a 10 10, 0, 0, 0, -10 -10" transform="rotate(90,110,90)"/><path d="M 105 105v 10h 10a 10 10, 0, 0, 0, -10 -10" transform="rotate(-90,110,110)"/><path d="M 105 115v 10h 10a 10 10, 0, 0, 0, -10 -10" transform="rotate(90,110,120)"/><path d="M 105 155v 10h 10a 10 10, 0, 0, 0, -10 -10" transform="rotate(-90,110,160)"/><rect x="105" y="185" width="10" height="10" transform="rotate(0,110,190)"/><rect x="105" y="195" width="10" height="10" transform="rotate(0,110,200)"/><rect x="105" y="225" width="10" height="10" transform="rotate(0,110,230)"/><path d="M 105 245v 10h 10a 10 10, 0, 0, 0, -10 -10" transform="rotate(-90,110,250)"/><path d="M 105 275v 10h 10a 10 10, 0, 0, 0, -10 -10" transform="rotate(-90,110,280)"/><path d="M 115 35v 10h 10a 10 10, 0, 0, 0, -10 -10" transform="rotate(90,120,40)"/><path d="M 115 95v 10h 10a 10 10, 0, 0, 0, -10 -10" transform="rotate(-90,120,100)"/><rect x="115" y="105" width="10" height="10" transform="rotate(0,120,110)"/><path d="M 115 125v 5a 5 5, 0, 0, 0, 5 5h 5v -5a 5 5, 0, 0, 0, -5 -5" transform="rotate(90,120,130)"/><path d="M 115 145v 10h 10a 10 10, 0, 0, 0, -10 -10" transform="rotate(-90,120,150)"/><path d="M 115 155v 10h 10a 10 10, 0, 0, 0, -10 -10" transform="rotate(90,120,160)"/><rect x="115" y="185" width="10" height="10" transform="rotate(0,120,190)"/><rect x="115" y="195" width="10" height="10" transform="rotate(0,120,200)"/><rect x="115" y="205" width="10" height="10" transform="rotate(0,120,210)"/><rect x="115" y="215" width="10" height="10" transform="rotate(0,120,220)"/><rect x="115" y="225" width="10" height="10" transform="rotate(0,120,230)"/><rect x="115" y="245" width="10" height="10" transform="rotate(0,120,250)"/><rect x="115" y="255" width="10" height="10" transform="rotate(0,120,260)"/><rect x="115" y="265" width="10" height="10" transform="rotate(0,120,270)"/><path d="M 115 275v 10h 10a 10 10, 0, 0, 0, -10 -10" transform="rotate(90,120,280)"/><path d="M 125 15v 5a 5 5, 0, 0, 0, 5 5h 5v -5a 5 5, 0, 0, 0, -5 -5" transform="rotate(90,130,20)"/><path d="M 125 65v 10h 10a 10 10, 0, 0, 0, -10 -10" transform="rotate(-90,130,70)"/><rect x="125" y="75" width="10" height="10" transform="rotate(0,130,80)"/><path d="M 125 85v 10h 10a 10 10, 0, 0, 0, -10 -10" transform="rotate(90,130,90)"/><rect x="125" y="105" width="10" height="10" transform="rotate(0,130,110)"/><rect x="125" y="115" width="10" height="10" transform="rotate(0,130,120)"/><rect x="125" y="145" width="10" height="10" transform="rotate(0,130,150)"/><path d="M 125 175v 5a 5 5, 0, 0, 0, 5 5h 5v -5a 5 5, 0, 0, 0, -5 -5" transform="rotate(90,130,180)"/><rect x="125" y="195" width="10" height="10" transform="rotate(0,130,200)"/><rect x="125" y="205" width="10" height="10" transform="rotate(0,130,210)"/><rect x="125" y="225" width="10" height="10" transform="rotate(0,130,230)"/><rect x="125" y="235" width="10" height="10" transform="rotate(0,130,240)"/><rect x="125" y="255" width="10" height="10" transform="rotate(0,130,260)"/><path d="M 135 5v 10h 10a 10 10, 0, 0, 0, -10 -10" transform="rotate(-90,140,10)"/><path d="M 135 25v 10h 10a 10 10, 0, 0, 0, -10 -10" transform="rotate(-90,140,30)"/><rect x="135" y="35" width="10" height="10" transform="rotate(0,140,40)"/><path d="M 135 95v 10h 10a 10 10, 0, 0, 0, -10 -10" transform="rotate(-90,140,100)"/><rect x="135" y="105" width="10" height="10" transform="rotate(0,140,110)"/><rect x="135" y="115" width="10" height="10" transform="rotate(0,140,120)"/><rect x="135" y="125" width="10" height="10" transform="rotate(0,140,130)"/><rect x="135" y="135" width="10" height="10" transform="rotate(0,140,140)"/><rect x="135" y="145" width="10" height="10" transform="rotate(0,140,150)"/><path d="M 135 155v 10h 10a 10 10, 0, 0, 0, -10 -10" transform="rotate(90,140,160)"/><path d="M 135 185v 10h 10a 10 10, 0, 0, 0, -10 -10" transform="rotate(-90,140,190)"/><rect x="135" y="195" width="10" height="10" transform="rotate(0,140,200)"/><rect x="135" y="205" width="10" height="10" transform="rotate(0,140,210)"/><path d="M 135 215v 10h 10a 10 10, 0, 0, 0, -10 -10" transform="rotate(90,140,220)"/><path d="M 135 235v 10h 10a 10 10, 0, 0, 0, -10 -10" transform="rotate(90,140,240)"/><path d="M 135 255v 10h 10a 10 10, 0, 0, 0, -10 -10" transform="rotate(90,140,260)"/><path d="M 135 275v 5a 5 5, 0, 0, 0, 5 5h 5v -5a 5 5, 0, 0, 0, -5 -5" transform="rotate(90,140,280)"/><rect x="145" y="5" width="10" height="10" transform="rotate(0,150,10)"/><rect x="145" y="15" width="10" height="10" transform="rotate(0,150,20)"/><rect x="145" y="25" width="10" height="10" transform="rotate(0,150,30)"/><rect x="145" y="35" width="10" height="10" transform="rotate(0,150,40)"/><rect x="145" y="45" width="10" height="10" transform="rotate(0,150,50)"/><path d="M 145 65v 10h 10a 10 10, 0, 0, 0, -10 -10" transform="rotate(-90,150,70)"/><rect x="145" y="75" width="10" height="10" transform="rotate(0,150,80)"/><rect x="145" y="85" width="10" height="10" transform="rotate(0,150,90)"/><path d="M 145 105v 10h 10a 10 10, 0, 0, 0, -10 -10" transform="rotate(90,150,110)"/><rect x="145" y="125" width="10" height="10" transform="rotate(0,150,130)"/><rect x="145" y="135" width="10" height="10" transform="rotate(0,150,140)"/><rect x="145" y="145" width="10" height="10" transform="rotate(0,150,150)"/><path d="M 145 165v 5a 5 5, 0, 0, 0, 5 5h 5v -5a 5 5, 0, 0, 0, -5 -5" transform="rotate(90,150,170)"/><rect x="145" y="205" width="10" height="10" transform="rotate(0,150,210)"/><path d="M 145 225v 10h 10a 10 10, 0, 0, 0, -10 -10" transform="rotate(-90,150,230)"/><path d="M 145 285v 5a 5 5, 0, 0, 0, 5 5h 5v -5a 5 5, 0, 0, 0, -5 -5" transform="rotate(90,150,290)"/><rect x="155" y="5" width="10" height="10" transform="rotate(0,160,10)"/><path d="M 155 45v 10h 10a 10 10, 0, 0, 0, -10 -10" transform="rotate(90,160,50)"/><rect x="155" y="85" width="10" height="10" transform="rotate(0,160,90)"/><path d="M 155 95v 10h 10a 10 10, 0, 0, 0, -10 -10" transform="rotate(90,160,100)"/><path d="M 155 115v 10h 10a 10 10, 0, 0, 0, -10 -10" transform="rotate(-90,160,120)"/><rect x="155" y="135" width="10" height="10" transform="rotate(0,160,140)"/><rect x="155" y="145" width="10" height="10" transform="rotate(0,160,150)"/><path d="M 155 195v 10h 10a 10 10, 0, 0, 0, -10 -10" transform="rotate(-90,160,200)"/><rect x="155" y="205" width="10" height="10" transform="rotate(0,160,210)"/><rect x="155" y="215" width="10" height="10" transform="rotate(0,160,220)"/><rect x="155" y="225" width="10" height="10" transform="rotate(0,160,230)"/><path d="M 155 235v 10h 10a 10 10, 0, 0, 0, -10 -10" transform="rotate(90,160,240)"/><rect x="165" y="5" width="10" height="10" transform="rotate(0,170,10)"/><rect x="165" y="15" width="10" height="10" transform="rotate(0,170,20)"/><rect x="165" y="25" width="10" height="10" transform="rotate(0,170,30)"/><path d="M 165 65v 5a 5 5, 0, 0, 0, 5 5h 5v -5a 5 5, 0, 0, 0, -5 -5" transform="rotate(90,170,70)"/><rect x="165" y="85" width="10" height="10" transform="rotate(0,170,90)"/><path d="M 165 105v 10h 10a 10 10, 0, 0, 0, -10 -10" transform="rotate(-90,170,110)"/><rect x="165" y="115" width="10" height="10" transform="rotate(0,170,120)"/><rect x="165" y="125" width="10" height="10" transform="rotate(0,170,130)"/><rect x="165" y="135" width="10" height="10" transform="rotate(0,170,140)"/><rect x="165" y="145" width="10" height="10" transform="rotate(0,170,150)"/><rect x="165" y="155" width="10" height="10" transform="rotate(0,170,160)"/><path d="M 165 165v 10h 10a 10 10, 0, 0, 0, -10 -10" transform="rotate(90,170,170)"/><rect x="165" y="215" width="10" height="10" transform="rotate(0,170,220)"/><path d="M 165 245v 5a 5 5, 0, 0, 0, 5 5h 5v -5a 5 5, 0, 0, 0, -5 -5" transform="rotate(90,170,250)"/><path d="M 165 275v 10h 10a 10 10, 0, 0, 0, -10 -10" transform="rotate(-90,170,280)"/><rect x="165" y="285" width="10" height="10" transform="rotate(0,170,290)"/><rect x="175" y="15" width="10" height="10" transform="rotate(0,180,20)"/><rect x="175" y="25" width="10" height="10" transform="rotate(0,180,30)"/><path d="M 175 45v 10h 10a 10 10, 0, 0, 0, -10 -10" transform="rotate(-90,180,50)"/><rect x="175" y="85" width="10" height="10" transform="rotate(0,180,90)"/><rect x="175" y="95" width="10" height="10" transform="rotate(0,180,100)"/><path d="M 175 105v 10h 10a 10 10, 0, 0, 0, -10 -10" transform="rotate(90,180,110)"/><rect x="175" y="135" width="10" height="10" transform="rotate(0,180,140)"/><path d="M 175 155v 10h 10a 10 10, 0, 0, 0, -10 -10" transform="rotate(90,180,160)"/><path d="M 175 205v 10h 10a 10 10, 0, 0, 0, -10 -10" transform="rotate(-90,180,210)"/><rect x="175" y="215" width="10" height="10" transform="rotate(0,180,220)"/><path d="M 175 235v 10h 10a 10 10, 0, 0, 0, -10 -10" transform="rotate(-90,180,240)"/><path d="M 175 255v 10h 10a 10 10, 0, 0, 0, -10 -10" transform="rotate(-90,180,260)"/><rect x="175" y="265" width="10" height="10" transform="rotate(0,180,270)"/><rect x="175" y="275" width="10" height="10" transform="rotate(0,180,280)"/><rect x="175" y="285" width="10" height="10" transform="rotate(0,180,290)"/><path d="M 185 5v 5a 5 5, 0, 0, 0, 5 5h 5v -5a 5 5, 0, 0, 0, -5 -5" transform="rotate(90,190,10)"/><rect x="185" y="25" width="10" height="10" transform="rotate(0,190,30)"/><rect x="185" y="35" width="10" height="10" transform="rotate(0,190,40)"/><rect x="185" y="45" width="10" height="10" transform="rotate(0,190,50)"/><path d="M 185 65v 10h 10a 10 10, 0, 0, 0, -10 -10" transform="rotate(-90,190,70)"/><rect x="185" y="75" width="10" height="10" transform="rotate(0,190,80)"/><rect x="185" y="85" width="10" height="10" transform="rotate(0,190,90)"/><path d="M 185 95v 10h 10a 10 10, 0, 0, 0, -10 -10" transform="rotate(90,190,100)"/><path d="M 185 115v 10h 10a 10 10, 0, 0, 0, -10 -10" transform="rotate(-90,190,120)"/><rect x="185" y="125" width="10" height="10" transform="rotate(0,190,130)"/><rect x="185" y="135" width="10" height="10" transform="rotate(0,190,140)"/><path d="M 185 145v 10h 10a 10 10, 0, 0, 0, -10 -10" transform="rotate(90,190,150)"/><path d="M 185 175v 10h 10a 10 10, 0, 0, 0, -10 -10" transform="rotate(-90,190,180)"/><path d="M 185 185v 10h 10a 10 10, 0, 0, 0, -10 -10" transform="rotate(90,190,190)"/><rect x="185" y="205" width="10" height="10" transform="rotate(0,190,210)"/><path d="M 185 215v 10h 10a 10 10, 0, 0, 0, -10 -10" transform="rotate(90,190,220)"/><rect x="185" y="235" width="10" height="10" transform="rotate(0,190,240)"/><path d="M 185 245v 10h 10a 10 10, 0, 0, 0, -10 -10" transform="rotate(90,190,250)"/><rect x="185" y="275" width="10" height="10" transform="rotate(0,190,280)"/><path d="M 185 285v 10h 10a 10 10, 0, 0, 0, -10 -10" transform="rotate(90,190,290)"/><path d="M 195 45v 10h 10a 10 10, 0, 0, 0, -10 -10" transform="rotate(90,200,50)"/><rect x="195" y="85" width="10" height="10" transform="rotate(0,200,90)"/><path d="M 195 135v 10h 10a 10 10, 0, 0, 0, -10 -10" transform="rotate(90,200,140)"/><path d="M 195 155v 10h 10a 10 10, 0, 0, 0, -10 -10" transform="rotate(-90,200,160)"/><rect x="195" y="165" width="10" height="10" transform="rotate(0,200,170)"/><path d="M 195 175v 10h 10a 10 10, 0, 0, 0, -10 -10" transform="rotate(90,200,180)"/><path d="M 195 275v 10h 10a 10 10, 0, 0, 0, -10 -10" transform="rotate(90,200,280)"/><path d="M 205 5v 5a 5 5, 0, 0, 0, 5 5h 5v -5a 5 5, 0, 0, 0, -5 -5" transform="rotate(90,210,10)"/><path d="M 205 65v 10h 10a 10 10, 0, 0, 0, -10 -10" transform="rotate(-90,210,70)"/><rect x="205" y="75" width="10" height="10" transform="rotate(0,210,80)"/><rect x="205" y="85" width="10" height="10" transform="rotate(0,210,90)"/><path d="M 205 115v 10h 10a 10 10, 0, 0, 0, -10 -10" transform="rotate(-90,210,120)"/><path d="M 205 125v 10h 10a 10 10, 0, 0, 0, -10 -10" transform="rotate(90,210,130)"/><path d="M 205 145v 5a 5 5, 0, 0, 0, 5 5h 5v -5a 5 5, 0, 0, 0, -5 -5" transform="rotate(90,210,150)"/><rect x="205" y="165" width="10" height="10" transform="rotate(0,210,170)"/><path d="M 205 185v 10h 10a 10 10, 0, 0, 0, -10 -10" transform="rotate(-90,210,190)"/><rect x="205" y="195" width="10" height="10" transform="rotate(0,210,200)"/><rect x="205" y="205" width="10" height="10" transform="rotate(0,210,210)"/><rect x="205" y="215" width="10" height="10" transform="rotate(0,210,220)"/><rect x="205" y="225" width="10" height="10" transform="rotate(0,210,230)"/><rect x="205" y="235" width="10" height="10" transform="rotate(0,210,240)"/><rect x="205" y="245" width="10" height="10" transform="rotate(0,210,250)"/><rect x="205" y="255" width="10" height="10" transform="rotate(0,210,260)"/><path d="M 205 265v 10h 10a 10 10, 0, 0, 0, -10 -10" transform="rotate(90,210,270)"/><rect x="215" y="85" width="10" height="10" transform="rotate(0,220,90)"/><path d="M 215 105v 10h 10a 10 10, 0, 0, 0, -10 -10" transform="rotate(-90,220,110)"/><path d="M 215 115v 10h 10a 10 10, 0, 0, 0, -10 -10" transform="rotate(90,220,120)"/><rect x="215" y="165" width="10" height="10" transform="rotate(0,220,170)"/><path d="M 215 175v 10h 10a 10 10, 0, 0, 0, -10 -10" transform="rotate(90,220,180)"/><rect x="215" y="195" width="10" height="10" transform="rotate(0,220,200)"/><rect x="215" y="205" width="10" height="10" transform="rotate(0,220,210)"/><rect x="215" y="245" width="10" height="10" transform="rotate(0,220,250)"/><path d="M 215 275v 10h 10a 10 10, 0, 0, 0, -10 -10" transform="rotate(-90,220,280)"/><path d="M 215 285v 10h 10a 10 10, 0, 0, 0, -10 -10" transform="rotate(90,220,290)"/><rect x="225" y="85" width="10" height="10" transform="rotate(0,230,90)"/><path d="M 225 165v 10h 10a 10 10, 0, 0, 0, -10 -10" transform="rotate(90,230,170)"/><path d="M 225 185v 10h 10a 10 10, 0, 0, 0, -10 -10" transform="rotate(-90,230,190)"/><rect x="225" y="205" width="10" height="10" transform="rotate(0,230,210)"/><path d="M 225 225v 5a 5 5, 0, 0, 0, 5 5h 5v -5a 5 5, 0, 0, 0, -5 -5" transform="rotate(90,230,230)"/><rect x="225" y="245" width="10" height="10" transform="rotate(0,230,250)"/><rect x="225" y="255" width="10" height="10" transform="rotate(0,230,260)"/><rect x="225" y="265" width="10" height="10" transform="rotate(0,230,270)"/><path d="M 225 275v 10h 10a 10 10, 0, 0, 0, -10 -10" transform="rotate(90,230,280)"/><path d="M 235 85v 10h 10a 10 10, 0, 0, 0, -10 -10" transform="rotate(90,240,90)"/><path d="M 235 105v 10h 10a 10 10, 0, 0, 0, -10 -10" transform="rotate(-90,240,110)"/><path d="M 235 125v 10h 10a 10 10, 0, 0, 0, -10 -10" transform="rotate(-90,240,130)"/><rect x="235" y="135" width="10" height="10" transform="rotate(0,240,140)"/><rect x="235" y="145" width="10" height="10" transform="rotate(0,240,150)"/><rect x="235" y="185" width="10" height="10" transform="rotate(0,240,190)"/><rect x="235" y="205" width="10" height="10" transform="rotate(0,240,210)"/><rect x="235" y="245" width="10" height="10" transform="rotate(0,240,250)"/><path d="M 235 265v 10h 10a 10 10, 0, 0, 0, -10 -10" transform="rotate(90,240,270)"/><path d="M 235 285v 5a 5 5, 0, 0, 0, 5 5h 5v -5a 5 5, 0, 0, 0, -5 -5" transform="rotate(90,240,290)"/><rect x="245" y="105" width="10" height="10" transform="rotate(0,250,110)"/><path d="M 245 115v 10h 10a 10 10, 0, 0, 0, -10 -10" transform="rotate(90,250,120)"/><rect x="245" y="135" width="10" height="10" transform="rotate(0,250,140)"/><path d="M 245 145v 10h 10a 10 10, 0, 0, 0, -10 -10" transform="rotate(90,250,150)"/><path d="M 245 165v 5a 5 5, 0, 0, 0, 5 5h 5v -5a 5 5, 0, 0, 0, -5 -5" transform="rotate(90,250,170)"/><rect x="245" y="185" width="10" height="10" transform="rotate(0,250,190)"/><rect x="245" y="205" width="10" height="10" transform="rotate(0,250,210)"/><rect x="245" y="215" width="10" height="10" transform="rotate(0,250,220)"/><rect x="245" y="225" width="10" height="10" transform="rotate(0,250,230)"/><rect x="245" y="235" width="10" height="10" transform="rotate(0,250,240)"/><rect x="245" y="245" width="10" height="10" transform="rotate(0,250,250)"/><rect x="245" y="255" width="10" height="10" transform="rotate(0,250,260)"/><path d="M 245 275v 5a 5 5, 0, 0, 0, 5 5h 5v -5a 5 5, 0, 0, 0, -5 -5" transform="rotate(90,250,280)"/><path d="M 255 85v 10h 10a 10 10, 0, 0, 0, -10 -10" transform="rotate(-90,260,90)"/><rect x="255" y="95" width="10" height="10" transform="rotate(0,260,100)"/><path d="M 255 125v 5a 5 5, 0, 0, 0, 5 5h 5v -5a 5 5, 0, 0, 0, -5 -5" transform="rotate(90,260,130)"/><path d="M 255 155v 10h 10a 10 10, 0, 0, 0, -10 -10" transform="rotate(-90,260,160)"/><rect x="255" y="185" width="10" height="10" transform="rotate(0,260,190)"/><rect x="255" y="195" width="10" height="10" transform="rotate(0,260,200)"/><rect x="255" y="205" width="10" height="10" transform="rotate(0,260,210)"/><rect x="255" y="215" width="10" height="10" transform="rotate(0,260,220)"/><path d="M 255 225v 10h 10a 10 10, 0, 0, 0, -10 -10" transform="rotate(90,260,230)"/><rect x="255" y="245" width="10" height="10" transform="rotate(0,260,250)"/><path d="M 255 255v 10h 10a 10 10, 0, 0, 0, -10 -10" transform="rotate(90,260,260)"/><path d="M 255 285v 10h 10a 10 10, 0, 0, 0, -10 -10" transform="rotate(-90,260,290)"/><rect x="265" y="95" width="10" height="10" transform="rotate(0,270,100)"/><rect x="265" y="105" width="10" height="10" transform="rotate(0,270,110)"/><path d="M 265 135v 10h 10a 10 10, 0, 0, 0, -10 -10" transform="rotate(-90,270,140)"/><rect x="265" y="145" width="10" height="10" transform="rotate(0,270,150)"/><rect x="265" y="155" width="10" height="10" transform="rotate(0,270,160)"/><rect x="265" y="165" width="10" height="10" transform="rotate(0,270,170)"/><rect x="265" y="195" width="10" height="10" transform="rotate(0,270,200)"/><path d="M 265 205v 10h 10a 10 10, 0, 0, 0, -10 -10" transform="rotate(90,270,210)"/><path d="M 265 245v 10h 10a 10 10, 0, 0, 0, -10 -10" transform="rotate(90,270,250)"/><path d="M 265 285v 10h 10a 10 10, 0, 0, 0, -10 -10" transform="rotate(90,270,290)"/><path d="M 275 85v 10h 10a 10 10, 0, 0, 0, -10 -10" transform="rotate(-90,280,90)"/><rect x="275" y="95" width="10" height="10" transform="rotate(0,280,100)"/><rect x="275" y="105" width="10" height="10" transform="rotate(0,280,110)"/><rect x="275" y="115" width="10" height="10" transform="rotate(0,280,120)"/><rect x="275" y="125" width="10" height="10" transform="rotate(0,280,130)"/><rect x="275" y="135" width="10" height="10" transform="rotate(0,280,140)"/><path d="M 275 145v 10h 10a 10 10, 0, 0, 0, -10 -10" transform="rotate(90,280,150)"/><rect x="275" y="165" width="10" height="10" transform="rotate(0,280,170)"/><rect x="275" y="175" width="10" height="10" transform="rotate(0,280,180)"/><path d="M 275 225v 10h 10a 10 10, 0, 0, 0, -10 -10" transform="rotate(-90,280,230)"/><path d="M 275 235v 10h 10a 10 10, 0, 0, 0, -10 -10" transform="rotate(90,280,240)"/><path d="M 275 255v 5a 5 5, 0, 0, 0, 5 5h 5v -5a 5 5, 0, 0, 0, -5 -5" transform="rotate(90,280,260)"/><path d="M 275 275v 10h 10a 10 10, 0, 0, 0, -10 -10" transform="rotate(-90,280,280)"/><rect x="285" y="95" width="10" height="10" transform="rotate(0,290,100)"/><rect x="285" y="105" width="10" height="10" transform="rotate(0,290,110)"/><path d="M 285 115v 10h 10a 10 10, 0, 0, 0, -10 -10" transform="rotate(90,290,120)"/><path d="M 285 135v 10h 10a 10 10, 0, 0, 0, -10 -10" transform="rotate(90,290,140)"/><path d="M 285 155v 5a 5 5, 0, 0, 0, 5 5h 5v -5a 5 5, 0, 0, 0, -5 -5" transform="rotate(90,290,160)"/><path d="M 285 175v 10h 10a 10 10, 0, 0, 0, -10 -10" transform="rotate(90,290,180)"/><path d="M 285 205v 10h 10a 10 10, 0, 0, 0, -10 -10" transform="rotate(-90,290,210)"/><path d="M 285 215v 10h 10a 10 10, 0, 0, 0, -10 -10" transform="rotate(90,290,220)"/><path d="M 285 245v 5a 5 5, 0, 0, 0, 5 5h 5v -5a 5 5, 0, 0, 0, -5 -5" transform="rotate(90,290,250)"/><path d="M 285 275v 10h 10a 10 10, 0, 0, 0, -10 -10" transform="rotate(90,290,280)"/></clipPath><linearGradient id="dot-color" gradientUnits="userSpaceOnUse" x1="5" y1="97" x2="295" y2="203"><stop offset="0%" stop-color="#425980"/><stop offset="100%" stop-color="#7f8390"/></linearGradient></defs><rect x="5" y="5" height="290" width="290" clip-path="url('#clip-path-dot-color')" fill="url('#dot-color')"/><g class="corners-square-color-0-0"><path d="M 5 5v 10h 10a 10 10, 0, 0, 0, -10 -10" transform="rotate(-90,10,10)"/><rect x="5" y="15" width="10" height="10" transform="rotate(0,10,20)"/><rect x="5" y="25" width="10" height="10" transform="rotate(0,10,30)"/><rect x="5" y="35" width="10" height="10" transform="rotate(0,10,40)"/><rect x="5" y="45" width="10" height="10" transform="rotate(0,10,50)"/><rect x="5" y="55" width="10" height="10" transform="rotate(0,10,60)"/><rect x="5" y="65" width="10" height="10" transform="rotate(0,10,70)"/><rect x="15" y="5" width="10" height="10" transform="rotate(0,20,10)"/><rect x="15" y="65" width="10" height="10" transform="rotate(0,20,70)"/><rect x="25" y="5" width="10" height="10" transform="rotate(0,30,10)"/><rect x="25" y="65" width="10" height="10" transform="rotate(0,30,70)"/><rect x="35" y="5" width="10" height="10" transform="rotate(0,40,10)"/><rect x="35" y="65" width="10" height="10" transform="rotate(0,40,70)"/><rect x="45" y="5" width="10" height="10" transform="rotate(0,50,10)"/><rect x="45" y="65" width="10" height="10" transform="rotate(0,50,70)"/><rect x="55" y="5" width="10" height="10" transform="rotate(0,60,10)"/><rect x="55" y="65" width="10" height="10" transform="rotate(0,60,70)"/><rect x="65" y="5" width="10" height="10" transform="rotate(0,70,10)"/><rect x="65" y="15" width="10" height="10" transform="rotate(0,70,20)"/><rect x="65" y="25" width="10" height="10" transform="rotate(0,70,30)"/><rect x="65" y="35" width="10" height="10" transform="rotate(0,70,40)"/><rect x="65" y="45" width="10" height="10" transform="rotate(0,70,50)"/><rect x="65" y="55" width="10" height="10" transform="rotate(0,70,60)"/><path d="M 65 65v 10h 10a 10 10, 0, 0, 0, -10 -10" transform="rotate(90,70,70)"/></g><g class="corners-dot-color-0-0"><path d="M 25 25v 10h 10a 10 10, 0, 0, 0, -10 -10" transform="rotate(-90,30,30)"/><rect x="25" y="35" width="10" height="10" transform="rotate(0,30,40)"/><rect x="25" y="45" width="10" height="10" transform="rotate(0,30,50)"/><rect x="35" y="25" width="10" height="10" transform="rotate(0,40,30)"/><rect x="35" y="35" width="10" height="10" transform="rotate(0,40,40)"/><rect x="35" y="45" width="10" height="10" transform="rotate(0,40,50)"/><rect x="45" y="25" width="10" height="10" transform="rotate(0,50,30)"/><rect x="45" y="35" width="10" height="10" transform="rotate(0,50,40)"/><path d="M 45 45v 10h 10a 10 10, 0, 0, 0, -10 -10" transform="rotate(90,50,50)"/></g><g class="corners-square-color-1-0"><path d="M 225 5v 10h 10a 10 10, 0, 0, 0, -10 -10" transform="rotate(-90,230,10)"/><rect x="225" y="15" width="10" height="10" transform="rotate(0,230,20)"/><rect x="225" y="25" width="10" height="10" transform="rotate(0,230,30)"/><rect x="225" y="35" width="10" height="10" transform="rotate(0,230,40)"/><rect x="225" y="45" width="10" height="10" transform="rotate(0,230,50)"/><rect x="225" y="55" width="10" height="10" transform="rotate(0,230,60)"/><rect x="225" y="65" width="10" height="10" transform="rotate(0,230,70)"/><rect x="235" y="5" width="10" height="10" transform="rotate(0,240,10)"/><rect x="235" y="65" width="10" height="10" transform="rotate(0,240,70)"/><rect x="245" y="5" width="10" height="10" transform="rotate(0,250,10)"/><rect x="245" y="65" width="10" height="10" transform="rotate(0,250,70)"/><rect x="255" y="5" width="10" height="10" transform="rotate(0,260,10)"/><rect x="255" y="65" width="10" height="10" transform="rotate(0,260,70)"/><rect x="265" y="5" width="10" height="10" transform="rotate(0,270,10)"/><rect x="265" y="65" width="10" height="10" transform="rotate(0,270,70)"/><rect x="275" y="5" width="10" height="10" transform="rotate(0,280,10)"/><rect x="275" y="65" width="10" height="10" transform="rotate(0,280,70)"/><rect x="285" y="5" width="10" height="10" transform="rotate(0,290,10)"/><rect x="285" y="15" width="10" height="10" transform="rotate(0,290,20)"/><rect x="285" y="25" width="10" height="10" transform="rotate(0,290,30)"/><rect x="285" y="35" width="10" height="10" transform="rotate(0,290,40)"/><rect x="285" y="45" width="10" height="10" transform="rotate(0,290,50)"/><rect x="285" y="55" width="10" height="10" transform="rotate(0,290,60)"/><path d="M 285 65v 10h 10a 10 10, 0, 0, 0, -10 -10" transform="rotate(90,290,70)"/></g><g class="corners-dot-color-1-0"><path d="M 245 25v 10h 10a 10 10, 0, 0, 0, -10 -10" transform="rotate(-90,250,30)"/><rect x="245" y="35" width="10" height="10" transform="rotate(0,250,40)"/><rect x="245" y="45" width="10" height="10" transform="rotate(0,250,50)"/><rect x="255" y="25" width="10" height="10" transform="rotate(0,260,30)"/><rect x="255" y="35" width="10" height="10" transform="rotate(0,260,40)"/><rect x="255" y="45" width="10" height="10" transform="rotate(0,260,50)"/><rect x="265" y="25" width="10" height="10" transform="rotate(0,270,30)"/><rect x="265" y="35" width="10" height="10" transform="rotate(0,270,40)"/><path d="M 265 45v 10h 10a 10 10, 0, 0, 0, -10 -10" transform="rotate(90,270,50)"/></g><g class="corners-square-color-0-1"><path d="M 5 225v 10h 10a 10 10, 0, 0, 0, -10 -10" transform="rotate(-90,10,230)"/><rect x="5" y="235" width="10" height="10" transform="rotate(0,10,240)"/><rect x="5" y="245" width="10" height="10" transform="rotate(0,10,250)"/><rect x="5" y="255" width="10" height="10" transform="rotate(0,10,260)"/><rect x="5" y="265" width="10" height="10" transform="rotate(0,10,270)"/><rect x="5" y="275" width="10" height="10" transform="rotate(0,10,280)"/><rect x="5" y="285" width="10" height="10" transform="rotate(0,10,290)"/><rect x="15" y="225" width="10" height="10" transform="rotate(0,20,230)"/><rect x="15" y="285" width="10" height="10" transform="rotate(0,20,290)"/><rect x="25" y="225" width="10" height="10" transform="rotate(0,30,230)"/><rect x="25" y="285" width="10" height="10" transform="rotate(0,30,290)"/><rect x="35" y="225" width="10" height="10" transform="rotate(0,40,230)"/><rect x="35" y="285" width="10" height="10" transform="rotate(0,40,290)"/><rect x="45" y="225" width="10" height="10" transform="rotate(0,50,230)"/><rect x="45" y="285" width="10" height="10" transform="rotate(0,50,290)"/><rect x="55" y="225" width="10" height="10" transform="rotate(0,60,230)"/><rect x="55" y="285" width="10" height="10" transform="rotate(0,60,290)"/><rect x="65" y="225" width="10" height="10" transform="rotate(0,70,230)"/><rect x="65" y="235" width="10" height="10" transform="rotate(0,70,240)"/><rect x="65" y="245" width="10" height="10" transform="rotate(0,70,250)"/><rect x="65" y="255" width="10" height="10" transform="rotate(0,70,260)"/><rect x="65" y="265" width="10" height="10" transform="rotate(0,70,270)"/><rect x="65" y="275" width="10" height="10" transform="rotate(0,70,280)"/><path d="M 65 285v 10h 10a 10 10, 0, 0, 0, -10 -10" transform="rotate(90,70,290)"/></g><g class="corners-dot-color-0-1"><path d="M 25 245v 10h 10a 10 10, 0, 0, 0, -10 -10" transform="rotate(-90,30,250)"/><rect x="25" y="255" width="10" height="10" transform="rotate(0,30,260)"/><rect x="25" y="265" width="10" height="10" transform="rotate(0,30,270)"/><rect x="35" y="245" width="10" height="10" transform="rotate(0,40,250)"/><rect x="35" y="255" width="10" height="10" transform="rotate(0,40,260)"/><rect x="35" y="265" width="10" height="10" transform="rotate(0,40,270)"/><rect x="45" y="245" width="10" height="10" transform="rotate(0,50,250)"/><rect x="45" y="255" width="10" height="10" transform="rotate(0,50,260)"/><path d="M 45 265v 10h 10a 10 10, 0, 0, 0, -10 -10" transform="rotate(90,50,270)"/></g></svg></g></svg></svg>